<svg width="44" height="45" viewBox="0 0 44 45" fill="none" xmlns="http://www.w3.org/2000/svg">
<g clip-path="url(#clip0_21179_2386)">
<rect x="0.5" y="0.53418" width="43" height="43" rx="7.5" stroke="#5F5F5F"/>
<path d="M32.5 21.9687C32.5 21.9171 32.5 21.8585 32.4977 21.7905C32.4953 21.6007 32.4906 21.3874 32.4859 21.1601C32.4672 20.5062 32.4344 19.8546 32.3828 19.2405C32.3125 18.3944 32.2094 17.689 32.0687 17.1593C31.9204 16.6065 31.6295 16.1024 31.2252 15.6972C30.8209 15.2921 30.3173 15.0002 29.7648 14.8507C29.1016 14.6726 27.8031 14.5624 25.975 14.4944C25.1055 14.4616 24.175 14.4405 23.2445 14.4288C22.9187 14.4241 22.6164 14.4218 22.3445 14.4194H21.6555C21.3836 14.4218 21.0813 14.4241 20.7555 14.4288C19.825 14.4405 18.8945 14.4616 18.025 14.4944C16.1969 14.5647 14.8961 14.6749 14.2352 14.8507C13.6825 14.9998 13.1788 15.2916 12.7744 15.6968C12.37 16.102 12.0793 16.6063 11.9313 17.1593C11.7883 17.689 11.6875 18.3944 11.6172 19.2405C11.5656 19.8546 11.5328 20.5062 11.5141 21.1601C11.507 21.3874 11.5047 21.6007 11.5023 21.7905C11.5023 21.8585 11.5 21.9171 11.5 21.9687V22.0999C11.5 22.1515 11.5 22.2101 11.5023 22.278C11.5047 22.4679 11.5094 22.6812 11.5141 22.9085C11.5328 23.5624 11.5656 24.214 11.6172 24.828C11.6875 25.6741 11.7906 26.3796 11.9313 26.9093C12.2313 28.0319 13.1125 28.9179 14.2352 29.2179C14.8961 29.396 16.1969 29.5062 18.025 29.5741C18.8945 29.6069 19.825 29.628 20.7555 29.6397C21.0813 29.6444 21.3836 29.6468 21.6555 29.6491H22.3445C22.6164 29.6468 22.9187 29.6444 23.2445 29.6397C24.175 29.628 25.1055 29.6069 25.975 29.5741C27.8031 29.5038 29.1039 29.3937 29.7648 29.2179C30.8875 28.9179 31.7687 28.0343 32.0687 26.9093C32.2117 26.3796 32.3125 25.6741 32.3828 24.828C32.4344 24.214 32.4672 23.5624 32.4859 22.9085C32.493 22.6812 32.4953 22.4679 32.4977 22.278C32.4977 22.2101 32.5 22.1515 32.5 22.0999V21.9687ZM30.8125 22.0905C30.8125 22.1397 30.8125 22.1937 30.8102 22.2569C30.8078 22.4397 30.8031 22.6413 30.7984 22.8593C30.782 23.4827 30.7492 24.1062 30.7 24.6851C30.6367 25.4397 30.5477 26.0585 30.4375 26.4733C30.2922 27.0147 29.8656 27.4437 29.3266 27.5866C28.8344 27.7179 27.5945 27.8233 25.9094 27.8866C25.0562 27.9194 24.1375 27.9405 23.2211 27.9522C22.9 27.9569 22.6023 27.9593 22.3352 27.9593H21.6648L20.7789 27.9522C19.8625 27.9405 18.9461 27.9194 18.0906 27.8866C16.4055 27.821 15.1633 27.7179 14.6734 27.5866C14.1344 27.4413 13.7078 27.0147 13.5625 26.4733C13.4523 26.0585 13.3633 25.4397 13.3 24.6851C13.2508 24.1062 13.2203 23.4827 13.2016 22.8593C13.1945 22.6413 13.1922 22.4374 13.1898 22.2569C13.1898 22.1937 13.1875 22.1374 13.1875 22.0905V21.978C13.1875 21.9288 13.1875 21.8749 13.1898 21.8116C13.1922 21.6288 13.1969 21.4272 13.2016 21.2093C13.218 20.5858 13.2508 19.9624 13.3 19.3835C13.3633 18.6288 13.4523 18.0101 13.5625 17.5952C13.7078 17.0538 14.1344 16.6249 14.6734 16.4819C15.1656 16.3507 16.4055 16.2452 18.0906 16.1819C18.9438 16.1491 19.8625 16.128 20.7789 16.1163C21.1 16.1116 21.3977 16.1093 21.6648 16.1093H22.3352L23.2211 16.1163C24.1375 16.128 25.0539 16.1491 25.9094 16.1819C27.5945 16.2476 28.8367 16.3507 29.3266 16.4819C29.8656 16.6272 30.2922 17.0538 30.4375 17.5952C30.5477 18.0101 30.6367 18.6288 30.7 19.3835C30.7492 19.9624 30.7797 20.5858 30.7984 21.2093C30.8055 21.4272 30.8078 21.6312 30.8102 21.8116C30.8102 21.8749 30.8125 21.9312 30.8125 21.978V22.0905ZM19.9141 25.1749L25.3516 22.0108L19.9141 18.8937V25.1749Z" fill="#07B6BF"/>
</g>
<defs>
<clipPath id="clip0_21179_2386">
<rect width="44" height="44" fill="white" transform="translate(0 0.0341797)"/>
</clipPath>
</defs>
</svg>
